<?xml version="1.0" encoding="utf-8"?>
<!-- Generator: Adobe Illustrator 22.0.1, SVG Export Plug-In . SVG Version: 6.00 Build 0)  -->
<svg version="1.1" id="Layer_1" xmlns="http://www.w3.org/2000/svg" xmlns:xlink="http://www.w3.org/1999/xlink" x="0px" y="0px"
	 viewBox="0 0 280 85" style="enable-background:new 0 0 280 85;" xml:space="preserve">
<style type="text/css">
	.st0{fill:#125C2F;}
	.st1{fill:#23AF4B;}
	.st2{fill:#FFFFFF;}
</style>
<g>
	<path class="st0" d="M91.9,33.7c6.9,6.9,6.9,18.2,0,25.1L73.4,77.4c-6.9,6.9-18.2,6.9-25.1,0L29.8,58.9c-6.9-6.9-6.9-18.2,0-25.1
		l18.5-18.5c6.9-6.9,18.2-6.9,25.1,0L91.9,33.7z"/>
	<path class="st1" d="M69.4,33.3c6.9,6.9,6.9,18.2,0,25.1L50.9,76.9c-6.9,6.9-18.2,6.9-25.1,0L7.3,58.4c-6.9-6.9-6.9-18.2,0-25.1
		l18.5-18.5c6.9-6.9,18.2-6.9,25.1,0L69.4,33.3z"/>
	<g>
		<g>
			<path class="st2" d="M110.1,54.2c-0.1-0.4-0.2-0.8-0.2-1c0-0.7,0.4-1.1,1.2-1.1h4.5c0.8,0,1.4,0.2,2,0.6c0.6,0.4,1,0.9,1.2,1.5
				l3.9,12.9l3.9-12.9c0.4-1.4,1.3-2.1,2.7-2.1h4.3c1.4,0,2.3,0.7,2.7,2.1l3.9,12.9l3.9-12.9c0.2-0.7,0.6-1.2,1.2-1.5
				c0.6-0.4,1.3-0.6,2-0.6h4.5c0.8,0,1.2,0.4,1.2,1.1c0,0.3-0.1,0.6-0.2,1l-7.3,22.1c-0.2,0.7-0.6,1.2-1.2,1.5
				c-0.6,0.4-1.2,0.6-1.8,0.6h-3.4c-0.7,0-1.3-0.2-1.9-0.6c-0.6-0.4-1-0.9-1.2-1.5l-4.6-14.3l-4.6,14.3c-0.2,0.6-0.6,1.1-1.2,1.5
				c-0.6,0.4-1.2,0.6-1.9,0.6h-3.4c-0.7,0-1.3-0.2-1.8-0.6c-0.6-0.4-1-0.9-1.2-1.5L110.1,54.2z"/>
			<path class="st2" d="M160.2,76.6c-2.1-1.5-3.2-3.6-3.2-6.2c0-2.7,1.1-4.8,3.2-6.2c2.1-1.4,4.9-2.2,8.2-2.2h7.9
				c0-1.9-0.4-3.2-1.2-3.9c-0.8-0.7-2.2-1.1-4.1-1.1c-2,0-3.3,0.5-4.1,1.5c-0.8,1-1.8,1.5-2.9,1.5h-3.6c-0.4,0-0.8-0.1-1.1-0.4
				c-0.3-0.3-0.4-0.6-0.4-1c0-4.6,4.4-6.9,13.1-6.9c3.8,0,6.9,0.8,9.2,2.6c2.3,1.7,3.5,4.3,3.5,7.9v14.9c0,0.4-0.1,0.8-0.4,1.1
				c-0.3,0.3-0.6,0.4-1.1,0.4h-4.6c-0.4,0-0.8-0.1-1.1-0.4c-0.3-0.3-0.4-0.6-0.4-1v-0.7c-2.5,1.8-5.4,2.7-8.8,2.7
				C165,78.8,162.3,78.1,160.2,76.6z M166.3,68.3c-0.6,0.5-1,1.2-1,2.1c0,0.9,0.3,1.6,1,2.1c0.7,0.6,1.6,0.8,2.9,0.8
				c2.5,0,4.8-0.7,7.1-2.2v-3.7H169C167.8,67.5,167,67.8,166.3,68.3z"/>
			<path class="st2" d="M193,76.9V45.4c0-0.4,0.1-0.8,0.4-1.1c0.3-0.3,0.6-0.4,1-0.4h5.4c0.4,0,0.8,0.1,1,0.4
				c0.3,0.3,0.4,0.6,0.4,1.1v31.5c0,0.4-0.1,0.8-0.4,1c-0.3,0.3-0.6,0.4-1,0.4h-5.4c-0.4,0-0.8-0.1-1-0.4
				C193.2,77.7,193,77.3,193,76.9z"/>
			<path class="st2" d="M209.7,76.9V45.4c0-0.4,0.1-0.8,0.4-1.1c0.3-0.3,0.6-0.4,1-0.4h5.4c0.4,0,0.8,0.1,1,0.4
				c0.3,0.3,0.4,0.6,0.4,1.1v31.5c0,0.4-0.1,0.8-0.4,1c-0.3,0.3-0.6,0.4-1,0.4h-5.4c-0.4,0-0.8-0.1-1-0.4
				C209.8,77.7,209.7,77.3,209.7,76.9z"/>
			<path class="st2" d="M228.6,75.3c-2.5-2.3-3.7-5.7-3.7-10.1c0-4.4,1.2-7.8,3.7-10.1c2.5-2.4,5.9-3.5,10.3-3.5
				c4.4,0,7.8,1.1,10.3,3.4c2.5,2.3,3.7,5.6,3.7,9.9v1.4c0,0.4-0.1,0.8-0.4,1.1c-0.3,0.3-0.6,0.4-1.1,0.4h-18.1
				c0.2,2,0.7,3.4,1.7,4.3c1,0.9,2.5,1.3,4.6,1.3c2.1,0,3.6-0.5,4.4-1.4c0.8-1,1.8-1.4,2.9-1.5h3.6c0.4,0,0.8,0.1,1.1,0.4
				c0.3,0.3,0.4,0.6,0.4,1.1c0,4.6-4.4,6.9-13.1,6.9C234.5,78.8,231,77.7,228.6,75.3z M233.3,62.7h11.2c-0.2-3.8-2-5.7-5.6-5.7
				C235.4,57,233.5,58.9,233.3,62.7z"/>
			<path class="st2" d="M272.3,73.2l3.3-0.3h0.9c0.4,0,0.8,0.1,1.1,0.4c0.3,0.3,0.4,0.6,0.4,1.1v2.6c0,0.4-0.1,0.7-0.4,0.9
				c-0.3,0.3-0.6,0.5-1.1,0.5c-1.6,0.3-3.8,0.5-6.4,0.5c-6.9,0-10.3-3.6-10.3-10.8V45.4c0-0.4,0.1-0.8,0.4-1.1
				c0.3-0.3,0.6-0.4,1-0.4h5.4c0.4,0,0.8,0.1,1,0.4c0.3,0.3,0.4,0.6,0.4,1.1v8h6.7c0.4,0,0.8,0.1,1,0.4c0.3,0.3,0.4,0.6,0.4,1.1v2.9
				c0,0.4-0.1,0.8-0.4,1.1c-0.3,0.3-0.6,0.4-1,0.4h-6.7V68c0,1.6,0.4,2.9,1.2,3.8C270,72.7,271.1,73.2,272.3,73.2z"/>
		</g>
	</g>
	<g>
		<g>
			<path class="st2" d="M111.9,42.1V10.6c0-0.4,0.1-0.8,0.4-1.1c0.3-0.3,0.6-0.4,1-0.4h4.6c0.4,0,0.8,0.1,1,0.4
				c0.3,0.3,0.4,0.6,0.4,1.1v0.7c2.5-1.8,5.5-2.7,8.8-2.7c3.3,0,6.1,1.2,8.4,3.5c2.2,2.4,3.4,5.7,3.4,10.1s-1.2,7.8-3.5,10.1
				c-2.3,2.3-5.5,3.5-9.4,3.5c-2,0-4.3-0.4-6.9-1.2v7.4c0,0.4-0.1,0.8-0.4,1.1c-0.3,0.3-0.6,0.4-1,0.4h-5.4c-0.4,0-0.8-0.1-1-0.4
				C112.1,42.9,111.9,42.5,111.9,42.1z M120.2,29.1c2.1,0.7,3.8,1,5.2,1c2.2,0,3.7-0.6,4.7-1.9c0.9-1.2,1.4-3.2,1.4-6
				c0-2.7-0.4-4.7-1.3-6c-0.9-1.2-2.2-1.9-3.9-1.9c-1.7,0-3.8,0.7-6,2.2V29.1z"/>
			<path class="st2" d="M149.2,32.5c-2.5-2.3-3.7-5.7-3.7-10.2c0-4.5,1.2-7.9,3.7-10.2c2.5-2.3,6.1-3.4,10.8-3.4s8.3,1.1,10.8,3.4
				c2.5,2.3,3.7,5.7,3.7,10.2c0,4.5-1.2,7.9-3.7,10.2c-2.5,2.3-6.1,3.5-10.8,3.5S151.7,34.8,149.2,32.5z M155.3,16
				c-1,1.3-1.5,3.4-1.5,6.2c0,2.9,0.5,4.9,1.5,6.2c1,1.3,2.6,2,4.7,2c2.1,0,3.7-0.7,4.7-2c1-1.3,1.5-3.4,1.5-6.2
				c0-2.8-0.5-4.9-1.5-6.2c-1-1.3-2.6-1.9-4.7-1.9C157.8,14.1,156.3,14.7,155.3,16z"/>
			<path class="st2" d="M199.6,15.2l-3.7-0.1c-2.2,0-4.2,1.2-6.2,3.6V34c0,0.4-0.1,0.8-0.4,1.1c-0.3,0.3-0.6,0.4-1,0.4h-5.4
				c-0.4,0-0.8-0.1-1.1-0.4c-0.3-0.3-0.4-0.6-0.4-1.1V10.6c0-0.4,0.1-0.8,0.4-1.1c0.3-0.3,0.6-0.4,1-0.4h5.4c0.4,0,0.8,0.1,1.1,0.4
				c0.3,0.3,0.4,0.6,0.4,1.1v1.5c1.6-1.2,3.2-2.1,4.7-2.6c1.5-0.6,3.5-0.9,5.9-0.9c0.4,0,0.8,0.1,1.1,0.4c0.3,0.3,0.4,0.6,0.4,1v3.6
				c0,0.4-0.1,0.8-0.4,1.1c-0.3,0.3-0.6,0.4-1.1,0.4H199.6z"/>
			<path class="st2" d="M220.3,30.2l3.3-0.3h0.9c0.4,0,0.8,0.1,1.1,0.4c0.3,0.3,0.4,0.6,0.4,1.1V34c0,0.4-0.1,0.7-0.4,0.9
				c-0.3,0.3-0.6,0.5-1.1,0.5c-1.6,0.3-3.8,0.5-6.4,0.5c-6.9,0-10.3-3.6-10.3-10.8V2.5c0-0.4,0.1-0.8,0.4-1.1c0.3-0.3,0.6-0.4,1-0.4
				h5.4c0.4,0,0.8,0.1,1,0.4c0.3,0.3,0.4,0.6,0.4,1.1v8h6.7c0.4,0,0.8,0.1,1,0.4c0.3,0.3,0.4,0.6,0.4,1.1v2.9c0,0.4-0.1,0.8-0.4,1.1
				c-0.3,0.3-0.6,0.4-1,0.4H216v8.8c0,1.6,0.4,2.9,1.2,3.8C218,29.8,219,30.2,220.3,30.2z"/>
		</g>
	</g>
</g>
</svg>
